<?xml version="1.0" encoding="utf-8"?>
<!-- Generator: Adobe Illustrator 28.1.0, SVG Export Plug-In . SVG Version: 6.00 Build 0)  -->
<svg version="1.1" id="Layer_1" xmlns="http://www.w3.org/2000/svg" xmlns:xlink="http://www.w3.org/1999/xlink" x="0px" y="0px"
	 viewBox="0 0 1769 111.5" style="enable-background:new 0 0 1769 111.5;" xml:space="preserve">
<g>
	<path d="M24.7,103.3c-5.1-2.2-9.1-5.4-12-9.5C9.8,89.7,8.4,85,8.4,79.5h16.6c0.4,4.1,2,7.4,4.8,10.1c2.9,2.6,6.9,3.9,12,3.9
		c5.3,0,9.5-1.3,12.5-3.9s4.5-5.9,4.5-10c0-3.2-0.9-5.8-2.8-7.8c-1.9-2-4.2-3.5-6.9-4.6c-2.8-1.1-6.6-2.3-11.5-3.5
		c-6.2-1.6-11.2-3.3-15-5c-3.9-1.7-7.1-4.3-9.9-7.8c-2.7-3.5-4.1-8.2-4.1-14.1c0-5.4,1.4-10.2,4.1-14.3c2.7-4.1,6.5-7.2,11.4-9.4
		c4.9-2.2,10.6-3.3,17-3.3c9.2,0,16.7,2.3,22.5,6.9c5.8,4.6,9.1,10.9,9.7,18.8H56.2c-0.3-3.4-1.9-6.4-4.9-8.8
		c-3-2.4-6.9-3.7-11.8-3.7c-4.4,0-8.1,1.1-10.9,3.4c-2.8,2.3-4.2,5.5-4.2,9.8c0,2.9,0.9,5.3,2.7,7.1c1.8,1.9,4,3.3,6.7,4.4
		c2.7,1.1,6.4,2.3,11.2,3.5c6.3,1.7,11.4,3.4,15.3,5.2c3.9,1.7,7.3,4.4,10.1,8c2.8,3.6,4.1,8.4,4.1,14.3c0,4.8-1.3,9.3-3.9,13.6
		c-2.6,4.3-6.3,7.7-11.3,10.3c-4.9,2.6-10.8,3.9-17.5,3.9C35.5,106.6,29.8,105.5,24.7,103.3z"/>
	<path d="M162.7,11.1l-31.3,60.2v34.3h-15.5V71.4L84.5,11.1h17.3l21.9,46.4l21.9-46.4H162.7z"/>
	<path d="M274.4,11.1v94.5h-15.5V40.9L230,105.6h-10.7l-29-64.7v64.7h-15.5V11.1h16.7l33.2,74.1l33-74.1H274.4z"/>
	<path d="M358.1,65.1c3.5,4.4,5.3,9.5,5.3,15.1c0,4.8-1.2,9.1-3.7,13c-2.5,3.9-6.1,6.9-10.8,9.1c-4.7,2.2-10.2,3.3-16.5,3.3h-37.8
		V11.1h36c6.4,0,12,1.1,16.6,3.3c4.6,2.2,8.1,5.1,10.5,8.8c2.4,3.7,3.5,7.8,3.5,12.3c0,5.4-1.5,10-4.4,13.6c-2.9,3.6-6.8,6.3-11.7,8
		C350.3,58,354.6,60.7,358.1,65.1z M310.1,50.8h19.2c5.1,0,9-1.2,11.9-3.5c2.9-2.3,4.3-5.6,4.3-10c0-4.3-1.4-7.6-4.3-10
		c-2.9-2.4-6.8-3.6-11.9-3.6h-19.2V50.8z M343.5,89.2c3-2.5,4.5-6.1,4.5-10.6c0-4.6-1.6-8.3-4.8-11c-3.2-2.7-7.4-4.1-12.6-4.1h-20.4
		V93h20.9C336.3,93,340.5,91.7,343.5,89.2z"/>
	<path d="M395.7,11.1v94.5h-15.5V11.1H395.7z"/>
	<path d="M434.8,100.4c-7.4-4.1-13.2-9.9-17.5-17.3c-4.3-7.4-6.5-15.7-6.5-25s2.2-17.5,6.5-24.9c4.3-7.3,10.2-13.1,17.5-17.2
		c7.4-4.1,15.5-6.2,24.3-6.2c8.9,0,17,2.1,24.4,6.2c7.4,4.1,13.2,9.9,17.5,17.2c4.3,7.3,6.4,15.6,6.4,24.9s-2.1,17.6-6.4,25
		c-4.3,7.4-10.1,13.1-17.5,17.3c-7.4,4.1-15.5,6.2-24.4,6.2C450.3,106.6,442.2,104.5,434.8,100.4z M475.8,88.8
		c4.9-2.9,8.7-6.9,11.5-12.2c2.8-5.3,4.1-11.4,4.1-18.4c0-7-1.4-13.1-4.1-18.4c-2.8-5.3-6.6-9.3-11.5-12.1
		c-4.9-2.8-10.5-4.2-16.7-4.2s-11.8,1.4-16.7,4.2c-4.9,2.8-8.7,6.8-11.5,12.1c-2.8,5.3-4.1,11.4-4.1,18.4c0,7,1.4,13.1,4.1,18.4
		c2.8,5.3,6.6,9.4,11.5,12.2s10.5,4.3,16.7,4.3S470.9,91.7,475.8,88.8z"/>
	<path d="M536.4,103.3c-5.1-2.2-9.1-5.4-12-9.5c-2.9-4.1-4.4-8.8-4.4-14.3h16.6c0.4,4.1,2,7.4,4.8,10.1c2.9,2.6,6.9,3.9,12,3.9
		c5.3,0,9.5-1.3,12.5-3.9s4.5-5.9,4.5-10c0-3.2-0.9-5.8-2.8-7.8c-1.9-2-4.2-3.5-6.9-4.6c-2.8-1.1-6.6-2.3-11.5-3.5
		c-6.2-1.6-11.2-3.3-15-5c-3.9-1.7-7.1-4.3-9.9-7.8c-2.7-3.5-4.1-8.2-4.1-14.1c0-5.4,1.4-10.2,4.1-14.3c2.7-4.1,6.5-7.2,11.4-9.4
		c4.9-2.2,10.6-3.3,17-3.3c9.2,0,16.7,2.3,22.5,6.9c5.8,4.6,9.1,10.9,9.7,18.8H568c-0.3-3.4-1.9-6.4-4.9-8.8
		c-3-2.4-6.9-3.7-11.8-3.7c-4.4,0-8.1,1.1-10.9,3.4c-2.8,2.3-4.2,5.5-4.2,9.8c0,2.9,0.9,5.3,2.7,7.1c1.8,1.9,4,3.3,6.7,4.4
		c2.7,1.1,6.4,2.3,11.2,3.5c6.3,1.7,11.4,3.4,15.3,5.2c3.9,1.7,7.3,4.4,10.1,8c2.8,3.6,4.1,8.4,4.1,14.3c0,4.8-1.3,9.3-3.9,13.6
		c-2.6,4.3-6.3,7.7-11.3,10.3c-4.9,2.6-10.8,3.9-17.5,3.9C547.2,106.6,541.5,105.5,536.4,103.3z"/>
	<path d="M619.9,23.6v27.7h32.6V64h-32.6v29h36.7v12.6h-52.2V11h52.2v12.6H619.9z"/>
	<path d="M833.9,11.1l-28,94.5h-17.5l-19.9-71.5l-21.1,71.5l-17.4,0.1l-26.8-94.7h16.5l19.6,77l21.2-77h17.4l19.7,76.6l19.7-76.6
		H833.9z"/>
	<path d="M862,23.6v27.7h32.6V64H862v29h36.7v12.6h-52.2V11h52.2v12.6H862z"/>
	<path d="M981.2,65.1c3.5,4.4,5.3,9.5,5.3,15.1c0,4.8-1.2,9.1-3.7,13c-2.5,3.9-6.1,6.9-10.8,9.1c-4.7,2.2-10.2,3.3-16.5,3.3h-37.8
		V11.1h36c6.4,0,12,1.1,16.6,3.3c4.6,2.2,8.1,5.1,10.5,8.8c2.4,3.7,3.5,7.8,3.5,12.3c0,5.4-1.5,10-4.4,13.6c-2.9,3.6-6.8,6.3-11.7,8
		C973.3,58,977.6,60.7,981.2,65.1z M933.1,50.8h19.2c5.1,0,9-1.2,11.9-3.5c2.9-2.3,4.3-5.6,4.3-10c0-4.3-1.4-7.6-4.3-10
		c-2.9-2.4-6.8-3.6-11.9-3.6h-19.2V50.8z M966.5,89.2c3-2.5,4.5-6.1,4.5-10.6c0-4.6-1.6-8.3-4.8-11c-3.2-2.7-7.4-4.1-12.6-4.1h-20.4
		V93h20.9C959.3,93,963.5,91.7,966.5,89.2z"/>
	<path d="M1052.4,103.3c-5.1-2.2-9.1-5.4-12-9.5c-2.9-4.1-4.4-8.8-4.4-14.3h16.6c0.4,4.1,2,7.4,4.8,10.1c2.9,2.6,6.9,3.9,12,3.9
		c5.3,0,9.5-1.3,12.5-3.9c3-2.6,4.5-5.9,4.5-10c0-3.2-0.9-5.8-2.8-7.8c-1.9-2-4.2-3.5-6.9-4.6c-2.8-1.1-6.6-2.3-11.5-3.5
		c-6.2-1.6-11.2-3.3-15-5c-3.9-1.7-7.1-4.3-9.9-7.8c-2.7-3.5-4.1-8.2-4.1-14.1c0-5.4,1.4-10.2,4.1-14.3c2.7-4.1,6.5-7.2,11.4-9.4
		c4.9-2.2,10.6-3.3,17-3.3c9.2,0,16.7,2.3,22.5,6.9c5.8,4.6,9.1,10.9,9.7,18.8H1084c-0.3-3.4-1.9-6.4-4.9-8.8
		c-3-2.4-6.9-3.7-11.8-3.7c-4.4,0-8.1,1.1-10.9,3.4c-2.8,2.3-4.2,5.5-4.2,9.8c0,2.9,0.9,5.3,2.7,7.1c1.8,1.9,4,3.3,6.7,4.4
		c2.7,1.1,6.4,2.3,11.2,3.5c6.3,1.7,11.4,3.4,15.3,5.2c3.9,1.7,7.3,4.4,10.1,8c2.8,3.6,4.1,8.4,4.1,14.3c0,4.8-1.3,9.3-3.9,13.6
		c-2.6,4.3-6.3,7.7-11.3,10.3c-4.9,2.6-10.8,3.9-17.5,3.9C1063.2,106.6,1057.5,105.5,1052.4,103.3z"/>
	<path d="M1139.2,100.4c-7.4-4.1-13.2-9.9-17.5-17.3c-4.3-7.4-6.5-15.7-6.5-25s2.2-17.5,6.5-24.9c4.3-7.3,10.2-13.1,17.5-17.2
		c7.4-4.1,15.5-6.2,24.3-6.2c8.9,0,17,2.1,24.4,6.2c7.4,4.1,13.2,9.9,17.5,17.2c4.3,7.3,6.4,15.6,6.4,24.9s-2.1,17.6-6.4,25
		c-4.3,7.4-10.1,13.1-17.5,17.3c-7.4,4.1-15.5,6.2-24.4,6.2C1154.7,106.6,1146.6,104.5,1139.2,100.4z M1180.3,88.8
		c4.9-2.9,8.7-6.9,11.5-12.2c2.8-5.3,4.1-11.4,4.1-18.4c0-7-1.4-13.1-4.1-18.4c-2.8-5.3-6.6-9.3-11.5-12.1
		c-4.9-2.8-10.5-4.2-16.7-4.2c-6.3,0-11.8,1.4-16.7,4.2c-4.9,2.8-8.7,6.8-11.5,12.1c-2.8,5.3-4.1,11.4-4.1,18.4
		c0,7,1.4,13.1,4.1,18.4c2.8,5.3,6.6,9.4,11.5,12.2c4.9,2.9,10.5,4.3,16.7,4.3C1169.8,93.1,1175.4,91.7,1180.3,88.8z"/>
	<path d="M1242.4,93.1h32v12.5h-47.5V11.1h15.5V93.1z"/>
	<path d="M1302.5,11.1v60.2c0,7.2,1.9,12.6,5.6,16.2c3.8,3.6,9,5.4,15.7,5.4c6.8,0,12.1-1.8,15.8-5.4c3.8-3.6,5.6-9,5.6-16.2V11.1
		h15.5v60c0,7.7-1.7,14.2-5,19.6c-3.4,5.4-7.8,9.3-13.5,12c-5.6,2.6-11.8,3.9-18.6,3.9s-13-1.3-18.6-3.9c-5.6-2.6-10-6.6-13.3-12
		c-3.3-5.3-4.9-11.9-4.9-19.6v-60H1302.5z"/>
	<path d="M1441.9,11.1v12.6h-25.2v81.9h-15.5V23.8H1376V11.1H1441.9z"/>
	<path d="M1472.9,11.1v94.5h-15.5V11.1H1472.9z"/>
	<path d="M1512,100.4c-7.4-4.1-13.2-9.9-17.5-17.3c-4.3-7.4-6.5-15.7-6.5-25s2.2-17.5,6.5-24.9c4.3-7.3,10.2-13.1,17.5-17.2
		c7.4-4.1,15.5-6.2,24.3-6.2c8.9,0,17,2.1,24.4,6.2c7.4,4.1,13.2,9.9,17.5,17.2c4.3,7.3,6.4,15.6,6.4,24.9s-2.1,17.6-6.4,25
		c-4.3,7.4-10.1,13.1-17.5,17.3c-7.4,4.1-15.5,6.2-24.4,6.2C1527.5,106.6,1519.4,104.5,1512,100.4z M1553,88.8
		c4.9-2.9,8.7-6.9,11.5-12.2c2.8-5.3,4.1-11.4,4.1-18.4c0-7-1.4-13.1-4.1-18.4c-2.8-5.3-6.6-9.3-11.5-12.1
		c-4.9-2.8-10.5-4.2-16.7-4.2c-6.3,0-11.8,1.4-16.7,4.2c-4.9,2.8-8.7,6.8-11.5,12.1c-2.8,5.3-4.1,11.4-4.1,18.4
		c0,7,1.4,13.1,4.1,18.4c2.8,5.3,6.6,9.4,11.5,12.2c4.9,2.9,10.5,4.3,16.7,4.3C1542.6,93.1,1548.1,91.7,1553,88.8z"/>
	<path d="M1677.3,105.6h-15.5l-46.6-70.6v70.6h-15.5V11h15.5l46.6,70.4V11h15.5V105.6z"/>
	<path d="M1711.6,103.3c-5.1-2.2-9.1-5.4-12-9.5c-2.9-4.1-4.4-8.8-4.4-14.3h16.6c0.4,4.1,2,7.4,4.8,10.1c2.9,2.6,6.9,3.9,12,3.9
		c5.3,0,9.5-1.3,12.5-3.9c3-2.6,4.5-5.9,4.5-10c0-3.2-0.9-5.8-2.8-7.8c-1.9-2-4.2-3.5-6.9-4.6c-2.8-1.1-6.6-2.3-11.5-3.5
		c-6.2-1.6-11.2-3.3-15-5c-3.9-1.7-7.1-4.3-9.9-7.8c-2.7-3.5-4.1-8.2-4.1-14.1c0-5.4,1.4-10.2,4.1-14.3c2.7-4.1,6.5-7.2,11.4-9.4
		c4.9-2.2,10.6-3.3,17-3.3c9.2,0,16.7,2.3,22.5,6.9c5.8,4.6,9.1,10.9,9.7,18.8h-17.1c-0.3-3.4-1.9-6.4-4.9-8.8
		c-3-2.4-6.9-3.7-11.8-3.7c-4.4,0-8.1,1.1-10.9,3.4c-2.8,2.3-4.2,5.5-4.2,9.8c0,2.9,0.9,5.3,2.7,7.1c1.8,1.9,4,3.3,6.7,4.4
		c2.7,1.1,6.4,2.3,11.2,3.5c6.3,1.7,11.4,3.4,15.3,5.2c3.9,1.7,7.3,4.4,10.1,8c2.8,3.6,4.1,8.4,4.1,14.3c0,4.8-1.3,9.3-3.9,13.6
		c-2.6,4.3-6.3,7.7-11.3,10.3c-4.9,2.6-10.8,3.9-17.5,3.9C1722.4,106.6,1716.7,105.5,1711.6,103.3z"/>
</g>
</svg>
