<?xml version="1.0" encoding="utf-8"?>
<!-- Generator: Adobe Illustrator 28.1.0, SVG Export Plug-In . SVG Version: 6.00 Build 0)  -->
<svg version="1.1" xmlns="http://www.w3.org/2000/svg" xmlns:xlink="http://www.w3.org/1999/xlink" x="0px" y="0px"
	 viewBox="0 0 1000 1000" style="enable-background:new 0 0 1000 1000;" xml:space="preserve">
<style type="text/css">
	.st0{fill:#222222;}
	.st1{fill:#E9E9E9;}
</style>
<g id="Layer_1">
	<g>
		<circle class="st0" cx="500" cy="500" r="496"/>
	</g>
</g>
<g id="Layer_2">
	<g>
		<path class="st1" d="M655.2,347.8c0-49.5-3.3-67.1-14.3-84.7c-17.6-27.5-49.5-36.3-137.5-36.3c-151.8,0-180.4,17.6-180.4,114.4
			c0,58.3,14.3,86.9,50.6,99c20.9,7.7,30.8,8.8,145.2,14.3c129.8,6.6,170.5,14.3,205.7,39.6c40.7,30.8,56.1,75.9,56.1,163.9
			c0,106.7-18.7,158.4-67.1,189.2c-42.9,26.4-95.7,34.1-236.5,34.1c-115.5,0-156.2-6.6-201.3-33c-27.5-16.5-51.7-51.7-59.4-89.1
			c-6.6-33-7.7-53.9-8.8-114.4h110c0,66,3.3,82.5,16.5,105.6c18.7,33,38.5,37.4,161.7,37.4c155.1,0,173.8-14.3,173.8-130.9
			c0-55-12.1-80.3-42.9-92.4c-19.8-7.7-19.8-7.7-147.4-15.4c-133.1-6.6-148.5-9.9-185.9-27.5c-58.3-28.6-82.5-80.3-82.5-177.1
			c0-84.7,17.6-138.6,56.1-167.2c44-33,99-42.9,229.9-42.9c145.2,0,202.4,15.4,237.6,64.9c20.9,30.8,30.8,70.4,30.8,126.5v22H655.2z
			"/>
	</g>
</g>
</svg>
