<?xml version="1.0" encoding="utf-8"?>
<!-- Generator: Adobe Illustrator 27.9.0, SVG Export Plug-In . SVG Version: 6.00 Build 0)  -->
<svg version="1.1" xmlns="http://www.w3.org/2000/svg" xmlns:xlink="http://www.w3.org/1999/xlink" x="0px" y="0px"
	 viewBox="0 0 5000 5000" style="enable-background:new 0 0 5000 5000;" xml:space="preserve">
<style type="text/css">
	.st0{display:none;}
	.st1{display:inline;fill:#29ABE2;}
	.st2{display:inline;fill:#4B4A4C;}
	.st3{fill:#FFFFFF;}
</style>
<g id="Layer_1" class="st0">
	<path id="XMLID_855_" class="st1" d="M4631.21,3013.92c39.02-165.06,59.78-337.1,59.78-513.92c0-176.82-20.77-348.86-59.78-513.92
		c86.34-55.51,143.81-152.21,143.81-262.27c0-171.93-139.88-311.82-311.82-311.82c-18.13,0-35.81,1.88-53.1,4.87
		c-117.19-210.39-267.34-399.98-443.52-561.69c16.68-38.17,26.09-80.22,26.09-124.48c0-171.93-139.88-311.82-311.82-311.82
		c-84.16,0-160.51,33.66-216.65,88.04c-216.36-109.67-452.87-185.07-702.37-219.17c-31.57-138.74-155.67-242.7-303.84-242.7
		c-171.94,0-311.82,139.88-311.82,311.82c0,144.07,98.35,265.29,231.35,300.9v765.14c-133,35.62-231.35,156.84-231.35,300.91
		c0,144.07,98.35,265.29,231.35,300.91v950.56c-133,35.62-231.35,156.84-231.35,300.91c0,144.07,98.35,265.29,231.35,300.91v765.14
		c-133,35.62-231.35,156.83-231.35,300.9c0,171.93,139.88,311.82,311.82,311.82c148.17,0,272.27-103.96,303.84-242.7
		c249.5-34.09,486.01-109.49,702.37-219.17c56.15,54.38,132.49,88.04,216.65,88.04c171.94,0,311.82-139.88,311.82-311.82
		c0-44.26-9.41-86.31-26.09-124.48c176.18-161.72,326.33-351.31,443.52-561.69c17.29,2.99,34.97,4.87,53.1,4.87
		c171.94,0,311.82-139.88,311.82-311.82C4775.02,3166.13,4717.55,3069.43,4631.21,3013.92z M3680.85,579.81
		c83.2,0,150.88,67.68,150.88,150.88c0,83.19-67.68,150.88-150.88,150.88s-150.88-67.68-150.88-150.88
		C3529.97,647.5,3597.65,579.81,3680.85,579.81z M2755.78,449.42c221.68,32.05,432.11,99.32,625.42,195.94
		c-7.74,27.16-12.16,55.72-12.16,85.34c0,171.93,139.88,311.82,311.82,311.82c69.29,0,133.14-23,184.96-61.36
		c157.15,145.76,291.68,315.5,397.79,503.4c-48.64,40.64-84.46,95.86-101.31,158.8h-342.58
		c-35.62-132.99-156.83-231.35-300.91-231.35c-10.06,0-19.96,0.58-29.78,1.51c-208.62-439.49-522-759.58-739.99-945.64
		C2751.36,461.75,2753.81,455.7,2755.78,449.42z M3449.5,3125.31c83.2,0,150.88,67.69,150.88,150.88
		c0,83.19-67.68,150.88-150.88,150.88s-150.88-67.68-150.88-150.88C3298.63,3192.99,3366.31,3125.31,3449.5,3125.31z
		 M3148.59,3195.72H2758.9c-28.74-107.27-113.18-191.71-220.44-220.44v-950.56c107.26-28.73,191.7-113.17,220.44-220.44h458.98
		c35.62,132.99,156.83,231.35,300.91,231.35c0.2,0,0.37-0.03,0.57-0.03c6.36,37.42,11.81,75.34,16.05,113.88
		c29.45,267.6,4.3,539.73-74.81,815.46c-3.71-0.13-7.35-0.56-11.1-0.56C3305.42,2964.37,3184.21,3062.73,3148.59,3195.72z
		 M3518.79,1874.69c-83.2,0-150.88-67.68-150.88-150.88c0-83.19,67.68-150.88,150.88-150.88s150.88,67.68,150.88,150.88
		C3669.67,1807.01,3601.99,1874.69,3518.79,1874.69z M3695.39,2131.88c-5.19-47.14-11.98-93.37-20-138.85
		c70.17-40.99,122.81-108.46,144.32-188.74h342.58c35.62,132.99,156.83,231.35,300.91,231.35c4.79,0,9.45-0.51,14.2-0.72
		c34.42,149.56,52.65,305.24,52.65,465.09c0,159.86-18.23,315.53-52.65,465.09c-4.75-0.22-9.41-0.72-14.2-0.72
		c-144.08,0-265.29,98.36-300.91,231.35h-411.87c-20.63-76.99-69.88-142.19-135.81-183.56
		C3700.1,2715.54,3727.29,2421.77,3695.39,2131.88z M3336.37,1471.46c-57.21,41.49-99.7,101.8-118.48,171.88H2758.9
		c-28.74-107.27-113.18-191.71-220.44-220.44V657.77c42.38-11.35,81.25-31.21,114.51-57.95
		C2855.16,775.39,3142.44,1072.1,3336.37,1471.46z M2307.11,356.86c0-83.19,67.68-150.88,150.88-150.88
		c83.2,0,150.88,67.68,150.88,150.88c0,83.19-67.68,150.88-150.88,150.88C2374.79,507.74,2307.11,440.06,2307.11,356.86z
		 M2307.11,1723.81c0-83.19,67.68-150.88,150.88-150.88c83.2,0,150.88,67.68,150.88,150.88c0,83.19-67.68,150.88-150.88,150.88
		C2374.79,1874.69,2307.11,1807.01,2307.11,1723.81z M2307.11,3276.19c0-83.19,67.68-150.88,150.88-150.88
		c83.2,0,150.88,67.69,150.88,150.88c0,83.19-67.68,150.88-150.88,150.88C2374.79,3427.06,2307.11,3359.38,2307.11,3276.19z
		 M2457.99,4794.02c-83.2,0-150.88-67.69-150.88-150.88c0-83.19,67.68-150.88,150.88-150.88c83.2,0,150.88,67.68,150.88,150.88
		C2608.87,4726.33,2541.19,4794.02,2457.99,4794.02z M2613.13,4373.04c-23.2-13.37-48.23-23.73-74.67-30.81v-765.14
		c107.26-28.73,191.7-113.17,220.44-220.44h389.69c15.54,57.98,47.29,109.23,90.23,148.74
		C3086.43,3791.77,2877.58,4081.31,2613.13,4373.04z M3680.85,4420.19c-83.2,0-150.88-67.69-150.88-150.88
		c0-83.19,67.68-150.88,150.88-150.88s150.88,67.68,150.88,150.88C3831.73,4352.5,3764.05,4420.19,3680.85,4420.19z
		 M3865.82,4018.85c-51.82-38.37-115.67-61.36-184.96-61.36c-171.94,0-311.82,139.88-311.82,311.82c0,29.62,4.42,58.17,12.16,85.33
		c-193.31,96.62-403.74,163.89-625.42,195.94c-7.03-22.58-16.82-43.89-28.53-63.96c275.96-303.69,494.17-606.16,653.92-906.41
		c22.02,4.95,44.83,7.79,68.33,7.79c144.08,0,265.3-98.36,300.91-231.35h411.87c16.86,62.94,52.67,118.16,101.31,158.8
		C4157.49,3703.35,4022.96,3873.09,3865.82,4018.85z M4463.2,3427.06c-83.2,0-150.88-67.68-150.88-150.88
		c0-83.19,67.68-150.88,150.88-150.88s150.88,67.69,150.88,150.88C4614.08,3359.38,4546.4,3427.06,4463.2,3427.06z M4463.2,1874.69
		c-83.2,0-150.88-67.68-150.88-150.88c0-83.19,67.68-150.88,150.88-150.88s150.88,67.68,150.88,150.88
		C4614.08,1807.01,4546.4,1874.69,4463.2,1874.69z"/>
	<path id="XMLID_820_" class="st2" d="M1603.22,3356.65h450.34c-5.17-26.04-7.98-52.93-7.98-80.47s2.81-54.43,7.98-80.47h-519.51
		c-139.35-354.36-190.98-703.26-153.65-1044.79c13.24-121.18,37.58-236.74,70.04-346.64h603.1c-5.19-26.04-7.96-52.93-7.96-80.47
		c0-27.54,2.77-54.43,7.96-80.47h-548.35c167.95-435.25,458.51-767.23,682.73-975.55c-41.49-36.07-75.54-80.25-100-130.08
		c-249.56,227.91-578.86,602.15-755.55,1105.64H571.85c273.61-599.93,824.94-1047.61,1488.94-1177.05
		c-9.63-34.91-15.21-71.5-15.21-109.43c0-17.74,1.49-35.1,3.69-52.25C1012.5,497.18,224.98,1408.3,224.98,2500
		c0,1091.71,787.54,2002.83,1824.3,2195.39c-2.18-17.16-3.69-34.51-3.69-52.25c0-37.94,5.54-74.53,15.17-109.43
		c-663.98-129.45-1215.3-577.13-1488.91-1177.05h854.84c152.12,347.86,383.01,699.05,692.45,1052.01
		c30.88-44.47,70.29-82.47,115.81-111.89C1958.26,3980.3,1747.6,3666.52,1603.22,3356.65z M506.47,3195.72
		C428.65,2978.14,385.92,2744,385.92,2500c0-244,42.73-478.14,120.55-695.72h776c-28.03,104.32-49.33,213.51-61.88,327.59
		c-38.47,349.58,8.96,704.79,141.15,1063.84H506.47z"/>
</g>
<g id="Layer_2">
	<path id="XMLID_00000108283234534805836500000010699250335945248421_" class="st3" d="M4631.21,3013.92
		c39.02-165.06,59.78-337.1,59.78-513.92c0-176.82-20.77-348.86-59.78-513.92c86.34-55.51,143.81-152.21,143.81-262.27
		c0-171.93-139.88-311.82-311.82-311.82c-18.13,0-35.81,1.88-53.1,4.87c-117.19-210.39-267.34-399.98-443.52-561.69
		c16.68-38.17,26.09-80.22,26.09-124.48c0-171.93-139.88-311.82-311.82-311.82c-84.16,0-160.51,33.66-216.65,88.04
		c-216.36-109.67-452.87-185.07-702.37-219.17c-31.57-138.74-155.67-242.7-303.84-242.7c-171.94,0-311.82,139.88-311.82,311.82
		c0,144.07,98.35,265.29,231.35,300.9v765.14c-133,35.62-231.35,156.84-231.35,300.91c0,144.07,98.35,265.29,231.35,300.91v950.56
		c-133,35.62-231.35,156.84-231.35,300.91c0,144.07,98.35,265.29,231.35,300.91v765.14c-133,35.62-231.35,156.83-231.35,300.9
		c0,171.93,139.88,311.82,311.82,311.82c148.17,0,272.27-103.96,303.84-242.7c249.5-34.09,486.01-109.49,702.37-219.17
		c56.15,54.38,132.49,88.04,216.65,88.04c171.94,0,311.82-139.88,311.82-311.82c0-44.26-9.41-86.31-26.09-124.48
		c176.18-161.72,326.33-351.31,443.52-561.69c17.29,2.99,34.97,4.87,53.1,4.87c171.94,0,311.82-139.88,311.82-311.82
		C4775.02,3166.13,4717.55,3069.43,4631.21,3013.92z M3680.85,579.81c83.2,0,150.88,67.68,150.88,150.88
		c0,83.19-67.68,150.88-150.88,150.88s-150.88-67.68-150.88-150.88C3529.97,647.5,3597.65,579.81,3680.85,579.81z M2755.78,449.42
		c221.68,32.05,432.11,99.32,625.42,195.94c-7.74,27.16-12.16,55.72-12.16,85.34c0,171.93,139.88,311.82,311.82,311.82
		c69.29,0,133.14-23,184.96-61.36c157.15,145.76,291.68,315.5,397.79,503.4c-48.64,40.64-84.46,95.86-101.31,158.8h-342.58
		c-35.62-132.99-156.83-231.35-300.91-231.35c-10.06,0-19.96,0.58-29.78,1.51c-208.62-439.49-522-759.58-739.99-945.64
		C2751.36,461.75,2753.81,455.7,2755.78,449.42z M3449.5,3125.31c83.2,0,150.88,67.69,150.88,150.88
		c0,83.19-67.68,150.88-150.88,150.88s-150.88-67.68-150.88-150.88C3298.63,3192.99,3366.31,3125.31,3449.5,3125.31z
		 M3148.59,3195.72H2758.9c-28.74-107.27-113.18-191.71-220.44-220.44v-950.56c107.26-28.73,191.7-113.17,220.44-220.44h458.98
		c35.62,132.99,156.83,231.35,300.91,231.35c0.2,0,0.37-0.03,0.57-0.03c6.36,37.42,11.81,75.34,16.05,113.88
		c29.45,267.6,4.3,539.73-74.81,815.46c-3.71-0.13-7.35-0.56-11.1-0.56C3305.42,2964.37,3184.21,3062.73,3148.59,3195.72z
		 M3518.79,1874.69c-83.2,0-150.88-67.68-150.88-150.88c0-83.19,67.68-150.88,150.88-150.88s150.88,67.68,150.88,150.88
		C3669.67,1807.01,3601.99,1874.69,3518.79,1874.69z M3695.39,2131.88c-5.19-47.14-11.98-93.37-20-138.85
		c70.17-40.99,122.81-108.46,144.32-188.74h342.58c35.62,132.99,156.83,231.35,300.91,231.35c4.79,0,9.45-0.51,14.2-0.72
		c34.42,149.56,52.65,305.24,52.65,465.09c0,159.86-18.23,315.53-52.65,465.09c-4.75-0.22-9.41-0.72-14.2-0.72
		c-144.08,0-265.29,98.36-300.91,231.35h-411.87c-20.63-76.99-69.88-142.19-135.81-183.56
		C3700.1,2715.54,3727.29,2421.77,3695.39,2131.88z M3336.37,1471.46c-57.21,41.49-99.7,101.8-118.48,171.88H2758.9
		c-28.74-107.27-113.18-191.71-220.44-220.44V657.77c42.38-11.35,81.25-31.21,114.51-57.95
		C2855.16,775.39,3142.44,1072.1,3336.37,1471.46z M2307.11,356.86c0-83.19,67.68-150.88,150.88-150.88
		c83.2,0,150.88,67.68,150.88,150.88c0,83.19-67.68,150.88-150.88,150.88C2374.79,507.74,2307.11,440.06,2307.11,356.86z
		 M2307.11,1723.81c0-83.19,67.68-150.88,150.88-150.88c83.2,0,150.88,67.68,150.88,150.88c0,83.19-67.68,150.88-150.88,150.88
		C2374.79,1874.69,2307.11,1807.01,2307.11,1723.81z M2307.11,3276.19c0-83.19,67.68-150.88,150.88-150.88
		c83.2,0,150.88,67.69,150.88,150.88c0,83.19-67.68,150.88-150.88,150.88C2374.79,3427.06,2307.11,3359.38,2307.11,3276.19z
		 M2457.99,4794.02c-83.2,0-150.88-67.69-150.88-150.88c0-83.19,67.68-150.88,150.88-150.88c83.2,0,150.88,67.68,150.88,150.88
		C2608.87,4726.33,2541.19,4794.02,2457.99,4794.02z M2613.13,4373.04c-23.2-13.37-48.23-23.73-74.67-30.81v-765.14
		c107.26-28.73,191.7-113.17,220.44-220.44h389.69c15.54,57.98,47.29,109.23,90.23,148.74
		C3086.43,3791.77,2877.58,4081.31,2613.13,4373.04z M3680.85,4420.19c-83.2,0-150.88-67.69-150.88-150.88
		c0-83.19,67.68-150.88,150.88-150.88s150.88,67.68,150.88,150.88C3831.73,4352.5,3764.05,4420.19,3680.85,4420.19z
		 M3865.82,4018.85c-51.82-38.37-115.67-61.36-184.96-61.36c-171.94,0-311.82,139.88-311.82,311.82c0,29.62,4.42,58.17,12.16,85.33
		c-193.31,96.62-403.74,163.89-625.42,195.94c-7.03-22.58-16.82-43.89-28.53-63.96c275.96-303.69,494.17-606.16,653.92-906.41
		c22.02,4.95,44.83,7.79,68.33,7.79c144.08,0,265.3-98.36,300.91-231.35h411.87c16.86,62.94,52.67,118.16,101.31,158.8
		C4157.49,3703.35,4022.96,3873.09,3865.82,4018.85z M4463.2,3427.06c-83.2,0-150.88-67.68-150.88-150.88
		c0-83.19,67.68-150.88,150.88-150.88s150.88,67.69,150.88,150.88C4614.08,3359.38,4546.4,3427.06,4463.2,3427.06z M4463.2,1874.69
		c-83.2,0-150.88-67.68-150.88-150.88c0-83.19,67.68-150.88,150.88-150.88s150.88,67.68,150.88,150.88
		C4614.08,1807.01,4546.4,1874.69,4463.2,1874.69z"/>
	<path id="XMLID_00000095304010076591689100000018131778428026036123_" class="st3" d="M1603.22,3356.65h450.34
		c-5.17-26.04-7.98-52.93-7.98-80.47s2.81-54.43,7.98-80.47h-519.51c-139.35-354.36-190.98-703.26-153.65-1044.79
		c13.24-121.18,37.58-236.74,70.04-346.64h603.1c-5.19-26.04-7.96-52.93-7.96-80.47c0-27.54,2.77-54.43,7.96-80.47h-548.35
		c167.95-435.25,458.51-767.23,682.73-975.55c-41.49-36.07-75.54-80.25-100-130.08c-249.56,227.91-578.86,602.15-755.55,1105.64
		H571.85c273.61-599.93,824.94-1047.61,1488.94-1177.05c-9.63-34.91-15.21-71.5-15.21-109.43c0-17.74,1.49-35.1,3.69-52.25
		C1012.5,497.18,224.98,1408.3,224.98,2500c0,1091.71,787.54,2002.83,1824.3,2195.39c-2.18-17.16-3.69-34.51-3.69-52.25
		c0-37.94,5.54-74.53,15.17-109.43c-663.98-129.45-1215.3-577.13-1488.91-1177.05h854.84
		c152.12,347.86,383.01,699.05,692.45,1052.01c30.88-44.47,70.29-82.47,115.81-111.89
		C1958.26,3980.3,1747.6,3666.52,1603.22,3356.65z M506.47,3195.72C428.65,2978.14,385.92,2744,385.92,2500
		c0-244,42.73-478.14,120.55-695.72h776c-28.03,104.32-49.33,213.51-61.88,327.59c-38.47,349.58,8.96,704.79,141.15,1063.84H506.47z
		"/>
</g>
</svg>
